<?xml version="1.0" encoding="UTF-8" standalone="no" ?>
<!DOCTYPE svg PUBLIC "-//W3C//DTD SVG 1.1//EN" "http://www.w3.org/Graphics/SVG/1.1/DTD/svg11.dtd">
<svg xmlns="http://www.w3.org/2000/svg" xmlns:xlink="http://www.w3.org/1999/xlink" version="1.1" width="400" height="400" viewBox="0 0 400 400" xml:space="preserve">
<desc>Created with Fabric.js 3.6.2</desc>
<defs>
</defs>
<g transform="matrix(3.33 0 0 3.33 200 200)" id="square-7"  >
<path style="stroke: none; stroke-width: 1; stroke-dasharray: none; stroke-linecap: butt; stroke-dashoffset: 0; stroke-linejoin: miter; stroke-miterlimit: 4; fill: rgb(52,109,166); fill-rule: evenodd; opacity: 1;"  transform=" translate(-630, -30)" d="M 602.995937 0 L 657.004063 0 C 658.658673 0 660 1.33730974 660 2.99593743 L 660 57.0040626 C 660 58.6586731 658.66269 60 657.004063 60 L 602.995937 60 C 601.341327 60 600 58.6626903 600 57.0040626 L 600 2.99593743 C 600 1.34132688 601.33731 0 602.995937 0 Z" stroke-linecap="round" />
</g>
<g transform="matrix(3.33 0 0 3.33 199.83 199.96)" id="linkedin"  >
<path style="stroke: none; stroke-width: 1; stroke-dasharray: none; stroke-linecap: butt; stroke-dashoffset: 0; stroke-linejoin: miter; stroke-miterlimit: 4; fill: rgb(255,255,255); fill-rule: evenodd; opacity: 1;"  transform=" translate(-620.95, -17.99)" d="M 612.883075 31.8231512 L 612.883075 13.5243389 L 607.22737 13.5243389 L 607.22737 31.8231512 L 612.883075 31.8231512 Z M 612.883075 7.03821455 C 612.849388 5.40065996 611.758016 4.15384615 609.985054 4.15384615 C 608.211632 4.15384615 607.052885 5.40065996 607.052885 7.03821455 C 607.052885 8.64020234 608.177944 9.92307692 609.917219 9.92307692 L 609.950906 9.92307692 C 611.758016 9.92307692 612.883075 8.64020234 612.883075 7.03821455 Z M 622.110042 31.8231517 L 622.110042 21.3973729 C 622.110042 20.8394014 622.15037 20.28143 622.314447 19.8836682 C 622.763034 18.7682778 623.783956 17.6136637 625.498199 17.6136637 C 627.743896 17.6136637 629.152278 18.8881587 629.152278 21.3973727 L 629.152278 31.8231516 L 634.846154 31.8231517 L 634.846154 21.1183872 C 634.846154 15.3839878 631.785045 12.715669 627.70191 12.715669 C 624.354081 12.715669 622.884572 14.5873593 622.068608 15.861302 L 622.109489 13.4139123 L 616.425462 13.4139123 C 616.507224 15.1657215 616.425462 31.8231516 616.425462 31.8231516 L 622.110042 31.8231517 Z" stroke-linecap="round" />
</g>
</svg>